<svg xmlns="http://www.w3.org/2000/svg" width="52" height="52" fill="none" viewBox="0 0 52 52"><g clip-path="url(#clip0_10459_257961)"><rect width="52" height="52" fill="#950EDB" fill-opacity=".12" rx="26"/><g opacity=".8"><path fill="#068455" d="M47.28 52.73v8.109H4.825V52.73c0-10.613 7.786-19.406 17.958-20.978h.002a21.48 21.48 0 0 1 3.268-.25c3.962 0 7.673 1.085 10.846 2.978 6.217 3.7 10.383 10.49 10.383 18.25Z"/><path fill="url(#paint0_linear_10459_257961)" d="M47.28 52.73v8.109H4.825V52.73c0-10.613 7.786-19.406 17.958-20.978h.002a21.48 21.48 0 0 1 3.268-.25c3.962 0 7.673 1.085 10.846 2.978 6.217 3.7 10.383 10.49 10.383 18.25Z"/></g><g opacity=".8"><path fill="#068455" d="M37.381 20.172c0 6.258-5.073 11.33-11.33 11.33-2.454 0-4.723-.779-6.579-2.103a11.322 11.322 0 0 1-4.752-9.227c0-6.26 5.073-11.332 11.33-11.332 1.192 0 2.341.184 3.422.527 4.585 1.448 7.909 5.74 7.909 10.805Z"/><path fill="url(#paint1_linear_10459_257961)" d="M37.381 20.172c0 6.258-5.073 11.33-11.33 11.33-2.454 0-4.723-.779-6.579-2.103a11.322 11.322 0 0 1-4.752-9.227c0-6.26 5.073-11.332 11.33-11.332 1.192 0 2.341.184 3.422.527 4.585 1.448 7.909 5.74 7.909 10.805Z"/></g></g><defs><linearGradient id="paint0_linear_10459_257961" x1="4.824" x2="37.511" y1="32.691" y2="68.773" gradientUnits="userSpaceOnUse"><stop stop-color="#950EDB"/><stop offset="1" stop-color="#482A9E"/></linearGradient><linearGradient id="paint1_linear_10459_257961" x1="14.72" x2="39.191" y1="9.759" y2="28.422" gradientUnits="userSpaceOnUse"><stop stop-color="#950EDB"/><stop offset="1" stop-color="#482A9E"/></linearGradient><clipPath id="clip0_10459_257961"><rect width="52" height="52" fill="#fff" rx="26"/></clipPath></defs></svg>